<svg width="22" height="18" viewBox="0 0 22 18" fill="none" xmlns="http://www.w3.org/2000/svg">
<path d="M2 16C1.45 16 0.979167 15.8042 0.5875 15.4125C0.195833 15.0208 0 14.55 0 14V2C0 1.45 0.195833 0.979167 0.5875 0.5875C0.979167 0.195833 1.45 0 2 0H18C18.55 0 19.0208 0.195833 19.4125 0.5875C19.8042 0.979167 20 1.45 20 2V8H2V14V14V14H12V16H2V16M2 4H18V2V2V2H2V2V2V4V4M17 18V15H14V13H17V10H19V13H22V15H19V18H17V18M2 14V14V13C2 11.6167 2 10.4375 2 9.4625C2 8.4875 2 8 2 8V8V8V8V2V2V2V2V2V2V14V14V14V14V14V14" fill="#007346"/>
</svg>
